<?xml version="1.0" standalone="no"?>
<!DOCTYPE svg PUBLIC "-//W3C//DTD SVG 20010904//EN"
 "http://www.w3.org/TR/2001/REC-SVG-20010904/DTD/svg10.dtd">
<svg version="1.0" xmlns="http://www.w3.org/2000/svg"
 width="1254.000000pt" height="1254.000000pt" viewBox="0 0 1254.000000 1254.000000"
 preserveAspectRatio="xMidYMid meet">
<metadata>
Created by potrace 1.16, written by Peter Selinger 2001-2019
</metadata>
<g transform="translate(0.000000,1254.000000) scale(0.100000,-0.100000)"
fill="#000000" stroke="none">
<path d="M6125 10993 c-134 -76 -423 -218 -563 -277 -483 -203 -1110 -353
-1667 -399 l-150 -12 -7 -210 c-3 -116 -5 -536 -4 -935 3 -770 5 -808 57
-1097 116 -645 389 -1244 806 -1769 125 -157 460 -488 638 -630 273 -218 555
-398 861 -551 l171 -86 124 65 c282 148 581 349 837 562 282 235 521 491 741
794 l81 112 -257 -1 -258 0 -68 -83 c-273 -336 -726 -710 -1107 -914 l-96 -51
-159 90 c-1083 611 -1719 1500 -1908 2664 -20 122 -21 175 -24 892 l-4 762 48
6 c166 22 446 73 618 112 441 100 782 221 1173 415 l203 101 217 -106 c434
-213 837 -346 1367 -452 208 -42 426 -76 439 -68 13 8 285 377 281 381 -2 2
-66 12 -143 22 -210 28 -316 47 -542 97 -538 118 -1030 297 -1489 541 -74 40
-135 72 -135 71 -1 0 -37 -21 -81 -46z"/>
<path d="M5305 9975 c-27 -7 -117 -31 -200 -53 -194 -52 -444 -105 -620 -132
-76 -11 -141 -23 -143 -25 -12 -11 -14 -1063 -3 -1222 31 -454 147 -874 356
-1288 44 -88 110 -207 145 -263 233 -372 584 -738 956 -998 51 -35 94 -64 97
-64 2 0 1 20 -4 44 -4 24 -16 122 -25 218 -21 216 -14 538 15 733 50 337 158
681 307 979 l57 114 -42 77 c-40 75 -422 849 -642 1302 -108 224 -124 274 -85
281 13 3 15 11 10 43 -5 32 -4 39 10 39 9 0 16 5 16 10 0 17 -33 47 -55 52
-18 3 -20 10 -18 66 1 36 -2 62 -8 62 -6 0 -7 -4 -4 -10 9 -14 -7 -12 -43 6
-34 16 -40 29 -19 37 21 9 -6 5 -58 -8z"/>
<path d="M9340 9363 c-25 -30 -98 -107 -163 -169 -65 -63 -115 -114 -111 -114
4 0 17 8 28 18 l21 17 -19 -23 c-11 -12 -25 -21 -31 -18 -15 5 -127 -83 -120
-94 3 -5 0 -12 -6 -16 -8 -4 -9 -3 -5 4 11 18 -10 14 -25 -5 -12 -15 -12 -16
1 -8 9 5 12 4 7 -1 -5 -5 -16 -9 -25 -9 -9 0 -17 -5 -17 -12 0 -6 -4 -15 -9
-20 -5 -5 -6 -3 -2 5 4 6 3 12 -2 12 -11 0 -30 -21 -30 -33 0 -5 -4 -12 -8
-15 -4 -4 -4 -1 1 7 5 9 3 12 -6 9 -8 -3 -13 -10 -12 -17 2 -6 -8 -18 -21 -27
-14 -8 -23 -21 -20 -28 3 -7 0 -24 -5 -39 -7 -17 -7 -28 0 -32 5 -4 9 -12 8
-18 -1 -7 3 -25 9 -40 18 -43 16 -78 -4 -70 -12 4 -15 2 -12 -8 7 -20 38 -24
38 -5 0 9 6 16 13 16 8 0 7 4 -3 10 -11 7 -11 10 -2 10 7 0 10 5 7 10 -11 18
15 40 46 40 19 0 29 -5 29 -15 0 -8 -7 -15 -15 -15 -8 0 -15 -4 -15 -10 0 -5
-7 -10 -15 -10 -12 0 -14 -7 -9 -27 6 -22 4 -25 -10 -20 -13 5 -16 -1 -16 -33
0 -38 2 -40 30 -40 17 0 29 -5 27 -11 -1 -6 4 -14 11 -16 9 -4 11 2 7 20 -4
14 -2 28 5 32 13 8 39 -22 40 -47 0 -10 4 -18 9 -18 17 0 4 -33 -14 -36 -10
-1 -22 -7 -28 -13 -6 -6 -18 -11 -27 -11 -8 0 -23 -9 -33 -20 -10 -12 -29 -20
-47 -20 -27 0 -30 -3 -30 -31 0 -24 4 -30 15 -25 10 3 15 -1 15 -11 0 -13 5
-12 27 8 19 16 23 18 12 4 -40 -50 -26 -44 25 10 130 139 295 372 280 396 -5
8 -3 9 6 4 10 -6 12 -4 7 9 -4 10 -3 15 3 11 14 -9 109 192 158 336 34 99 86
308 79 316 -2 1 -23 -23 -47 -54z"/>
<path d="M7275 8873 c-257 -223 -400 -373 -584 -613 -51 -67 -57 -80 -17 -35
20 22 41 39 46 38 6 -2 9 0 9 5 -3 20 2 32 14 29 6 -1 11 6 9 15 -1 9 3 20 9
24 8 5 10 -7 6 -42 -2 -26 -9 -50 -15 -52 -7 -2 -7 -14 -1 -35 5 -17 7 -39 4
-48 -3 -8 4 -26 15 -39 11 -13 20 -29 20 -36 0 -7 14 -26 31 -43 28 -28 29
-33 20 -68 -15 -54 -14 -66 7 -58 9 3 -1 -13 -23 -37 -22 -23 5 0 60 52 121
116 252 226 407 343 122 93 127 102 89 144 -9 10 -15 26 -13 36 2 10 -3 17
-12 17 -11 0 -13 8 -9 33 3 23 0 39 -11 50 -9 8 -16 24 -16 33 0 10 -12 28
-26 41 -14 12 -24 28 -22 35 5 15 -18 42 -30 34 -4 -2 -14 0 -22 5 -12 8 -12
12 -2 16 17 7 5 23 -19 23 -22 0 -24 11 -6 29 6 6 12 17 12 22 0 6 25 33 55
60 30 26 53 48 50 48 -3 0 -18 -11 -35 -26z"/>
<path d="M7700 8245 c-30 -19 -55 -38 -55 -44 0 -5 -4 -13 -9 -18 -5 -5 -6 -3
-2 5 15 25 -12 10 -129 -74 -167 -120 -319 -251 -460 -395 -110 -114 -235
-258 -235 -272 0 -3 26 5 57 19 123 55 332 119 635 195 299 75 549 151 607
185 14 8 18 13 8 10 -18 -6 -67 12 -79 29 -4 5 -10 6 -14 2 -4 -4 -13 -2 -21
4 -10 9 -17 8 -28 -1 -13 -11 -15 -8 -15 19 0 17 5 31 11 31 5 0 8 -4 5 -8 -2
-4 4 -13 15 -20 29 -18 23 0 -10 32 -22 21 -37 27 -63 25 -18 -2 -39 0 -45 4
-6 4 -14 3 -18 -3 -4 -6 -11 -8 -16 -4 -5 3 -7 10 -3 15 3 5 10 7 15 4 5 -4 9
8 9 25 0 24 7 35 30 48 28 16 36 40 12 35 -6 -1 -13 11 -17 27 -4 17 -11 30
-16 30 -5 0 -9 12 -9 26 0 14 -4 23 -10 19 -6 -3 -10 4 -10 17 0 19 -8 26 -45
37 -25 7 -42 17 -39 22 8 13 4 12 -56 -26z"/>
<path d="M8929 8053 c-6 -17 -144 -138 -229 -202 -168 -126 -393 -241 -630
-322 -105 -37 -328 -94 -695 -179 -677 -157 -1040 -444 -1194 -945 -44 -142
-61 -256 -68 -446 l-6 -167 79 -45 79 -46 55 31 c357 201 758 532 1006 832 42
50 86 103 98 117 17 20 35 28 78 33 85 11 268 61 372 102 378 151 650 385 864
744 91 153 212 454 199 493 -3 9 -5 9 -8 0z"/>
<path d="M1773 3838 l2 -753 220 0 220 0 5 472 5 472 505 -475 505 -474 224 2
225 3 0 753 1 752 -222 0 -223 0 -2 -470 -3 -470 -261 247 c-143 137 -367 348
-496 471 l-236 222 -236 0 -236 0 3 -752z"/>
<path d="M4573 4570 c-184 -48 -313 -164 -363 -327 -18 -60 -20 -93 -20 -402
0 -365 3 -388 57 -496 53 -104 187 -205 324 -242 58 -16 121 -18 659 -18 539
0 601 2 659 18 161 44 272 129 334 257 53 108 59 170 55 528 -4 285 -6 311
-26 366 -33 88 -65 138 -127 194 -66 61 -133 95 -239 122 -75 19 -110 20 -660
19 -535 0 -587 -2 -653 -19z m1163 -375 c28 -14 60 -40 74 -62 25 -36 25 -39
28 -277 3 -202 0 -247 -13 -283 -20 -52 -72 -99 -125 -113 -27 -7 -189 -10
-488 -8 l-447 3 -48 28 c-83 49 -91 76 -95 318 -4 232 5 302 46 351 57 68 56
68 563 68 l455 0 50 -25z"/>
<path d="M6751 4303 c227 -360 399 -634 604 -962 l160 -256 295 0 295 0 253
425 c140 234 343 572 452 753 l198 327 -262 0 -261 -1 -119 -212 c-121 -216
-398 -707 -443 -784 l-24 -43 -87 0 -87 1 -120 216 c-66 119 -197 352 -291
517 l-171 301 -286 3 -287 2 181 -287z"/>
<path d="M9310 4073 c0 -579 3 -603 66 -724 62 -118 178 -204 334 -246 58 -16
116 -18 515 -18 l450 0 82 26 c198 62 319 189 359 377 11 53 14 177 14 585 l0
517 -220 0 -220 0 0 -492 c0 -460 -2 -496 -19 -534 -21 -45 -67 -85 -120 -103
-22 -7 -135 -11 -331 -11 -244 0 -305 3 -343 16 -54 18 -101 67 -116 121 -7
24 -11 215 -11 521 l0 482 -220 0 -220 0 0 -517z"/>
<path d="M5345 2939 c-1481 -35 -2821 -134 -3582 -264 -202 -35 -503 -108
-491 -120 2 -2 82 5 178 15 989 108 2177 163 4114 191 1667 24 3773 -26 5076
-122 339 -24 803 -68 915 -85 67 -11 35 3 -70 30 -406 102 -1316 212 -2335
281 -1058 71 -2649 102 -3805 74z"/>
<path d="M2780 2225 l0 -175 35 0 35 0 0 175 0 175 -35 0 -35 0 0 -175z"/>
<path d="M3050 2225 l0 -175 35 0 35 0 0 112 c0 132 -2 132 105 -17 63 -87 71
-95 102 -95 l33 0 0 175 0 175 -32 0 -33 0 2 -110 c1 -79 -2 -110 -10 -109 -7
0 -48 50 -92 110 -73 100 -83 109 -112 109 l-33 0 0 -175z"/>
<path d="M3604 2390 c-55 -22 -73 -112 -31 -154 13 -13 48 -29 78 -36 86 -20
112 -54 64 -86 -30 -20 -74 -14 -116 17 -29 21 -31 21 -44 3 -20 -27 -18 -41
8 -58 67 -43 168 -40 215 7 19 19 24 35 24 68 -1 55 -29 82 -107 105 -86 24
-106 56 -53 82 22 10 34 10 74 -4 45 -15 49 -15 61 2 19 27 16 34 -22 50 -38
15 -118 18 -151 4z"/>
<path d="M3970 2283 c1 -182 36 -236 157 -236 60 0 94 19 123 66 17 27 20 51
20 160 l0 127 -35 0 -36 0 3 -47 c1 -27 1 -83 0 -125 -2 -94 -19 -118 -81
-118 -31 0 -44 6 -60 26 -19 24 -21 40 -21 145 l0 119 -35 0 -35 0 0 -117z"/>
<path d="M4460 2225 l0 -175 35 0 35 0 0 55 0 55 38 0 c35 0 41 -4 73 -55 31
-51 37 -55 72 -55 42 0 42 -2 -5 67 -15 23 -28 45 -28 48 0 4 11 16 25 27 45
35 53 119 16 162 -32 36 -67 46 -166 46 l-95 0 0 -175z m200 95 c23 -23 25
-49 6 -75 -10 -13 -30 -20 -75 -23 l-61 -4 0 61 0 61 55 0 c42 0 60 -5 75 -20z"/>
<path d="M5021 2378 c-5 -13 -36 -88 -70 -167 -34 -79 -61 -148 -61 -152 0 -5
15 -9 33 -9 29 0 35 5 46 35 l12 35 85 0 84 0 14 -35 c13 -31 19 -35 50 -35
l35 0 -23 53 c-22 48 -73 170 -110 260 -13 33 -19 37 -51 37 -28 0 -37 -5 -44
-22z"/>
<path d="M5400 2225 l0 -175 36 0 35 0 -2 110 c-1 61 0 113 3 115 2 3 42 -47
89 -110 77 -105 87 -114 117 -115 l32 0 0 175 0 175 -29 0 -29 0 -7 -97 c-3
-54 -7 -105 -8 -113 -2 -8 -41 36 -87 98 -78 103 -87 112 -117 112 l-33 0 0
-175z"/>
<path d="M5976 2377 c-77 -43 -106 -147 -67 -233 44 -96 174 -129 268 -67 28
18 29 34 5 56 -16 14 -19 14 -42 -3 -16 -12 -41 -20 -68 -20 -37 0 -50 6 -78
34 -29 29 -34 41 -34 81 0 40 5 52 34 81 40 40 92 46 143 15 l31 -20 16 24 c9
13 16 27 16 29 0 3 -18 15 -40 26 -54 28 -133 27 -184 -3z"/>
<path d="M6380 2225 l0 -175 125 0 125 0 0 30 0 30 -96 0 -95 0 3 43 3 42 83
3 c79 3 82 4 82 27 0 23 -3 24 -82 27 l-83 3 -3 43 -3 42 95 0 96 0 0 30 0 30
-125 0 -125 0 0 -175z"/>
<path d="M7114 2390 c-33 -13 -54 -50 -54 -92 0 -50 24 -73 97 -94 93 -26 120
-70 58 -94 -31 -12 -70 -4 -107 22 l-27 19 -17 -27 c-17 -25 -17 -27 7 -45 34
-26 107 -40 154 -29 55 12 85 50 85 104 0 54 -25 78 -102 101 -56 16 -88 36
-88 55 0 5 11 17 24 25 20 13 32 14 63 6 21 -6 44 -15 52 -20 16 -10 40 12 41
37 0 32 -131 55 -186 32z"/>
<path d="M7490 2225 l0 -175 125 0 125 0 0 30 0 30 -89 0 -88 0 -6 37 c-4 20
-4 40 -1 45 3 4 41 8 85 8 77 0 79 1 79 25 0 24 -2 24 -82 27 l-83 3 0 40 0
40 93 3 92 3 0 29 0 30 -125 0 -125 0 0 -175z"/>
<path d="M7930 2225 l0 -175 30 0 c30 0 30 1 30 55 l0 55 39 0 c35 0 41 -4 75
-55 34 -51 39 -55 76 -55 l39 0 -41 59 -41 60 31 26 c61 51 51 150 -18 185
-31 16 -59 20 -130 20 l-90 0 0 -175z m192 98 c10 -9 18 -29 18 -44 0 -40 -35
-61 -97 -57 l-48 3 -3 58 -3 57 57 0 c39 0 63 -5 76 -17z"/>
<path d="M8350 2392 c0 -5 26 -76 58 -158 33 -82 62 -157 65 -166 5 -13 17
-18 44 -18 l38 0 65 166 c36 92 67 171 69 176 2 5 -14 8 -34 6 l-37 -3 -47
-122 c-25 -68 -49 -123 -52 -123 -3 0 -28 56 -54 125 l-48 125 -33 0 c-19 0
-34 -4 -34 -8z"/>
<path d="M8850 2225 l0 -175 35 0 35 0 0 175 0 175 -35 0 -35 0 0 -175z"/>
<path d="M9200 2389 c-135 -56 -139 -257 -8 -325 57 -30 152 -18 201 24 16 15
16 16 -4 38 -22 23 -22 23 -47 4 -30 -24 -98 -26 -130 -4 -71 50 -66 161 10
200 37 19 100 14 127 -10 16 -15 19 -14 40 8 l22 24 -32 23 c-37 26 -136 36
-179 18z"/>
<path d="M9580 2225 l0 -175 125 0 125 0 0 30 0 29 -92 3 -93 3 0 40 0 40 83
3 c80 3 82 3 82 27 0 24 -2 25 -80 25 l-80 0 0 45 0 45 90 0 90 0 0 30 0 30
-125 0 -125 0 0 -175z"/>
<path d="M10039 2372 c-23 -21 -31 -37 -32 -64 -1 -55 24 -85 91 -104 62 -17
102 -39 102 -54 0 -19 -40 -50 -64 -50 -12 0 -43 11 -67 24 l-44 23 -17 -22
c-16 -21 -16 -24 0 -38 64 -56 182 -57 230 -2 42 50 24 131 -35 153 -15 5 -49
17 -75 26 -49 18 -66 40 -47 62 15 19 89 18 116 -1 19 -13 22 -13 37 10 9 13
16 27 16 30 0 14 -74 35 -125 35 -46 0 -60 -5 -86 -28z"/>
</g>
</svg>
